<svg xmlns="http://www.w3.org/2000/svg" width="46.472" height="45.735" viewBox="0 0 46.472 45.735">
  <g id="UiE8CP" transform="translate(434.02 -777.618)">
    <g id="Group_103469" data-name="Group 103469" transform="translate(-434.02 777.618)">
      <path id="Path_73867" data-name="Path 73867" d="M-395.99,841.373h-14.292a1.8,1.8,0,0,1-2.046-2.064q0-10.537-.006-21.075a2.087,2.087,0,0,1,.792-1.723q7.086-5.931,14.156-11.882a1.931,1.931,0,0,1,2.8,0q7.076,5.943,14.155,11.882a2.055,2.055,0,0,1,.787,1.687q-.012,10.595-.006,21.19a1.779,1.779,0,0,1-1.975,1.981Q-388.806,841.375-395.99,841.373Zm10.759-15.3A10.756,10.756,0,0,0-395.938,815.3a10.759,10.759,0,0,0-10.806,10.717,10.762,10.762,0,0,0,10.727,10.8A10.761,10.761,0,0,0-385.231,826.076Z" transform="translate(419.223 -795.638)" fill="#273583"/>
      <path id="Path_73868" data-name="Path 73868" d="M-410.746,777.618a4.343,4.343,0,0,1,2.781,1.017q9.822,8.243,19.639,16.492A1.912,1.912,0,0,1-388,797.9a1.921,1.921,0,0,1-2.786.158q-9.282-7.791-18.559-15.586a1.936,1.936,0,0,0-2.863-.01q-9.264,7.782-18.525,15.566a1.972,1.972,0,0,1-1.758.512,1.812,1.812,0,0,1-1.448-1.361,1.829,1.829,0,0,1,.629-1.988c1.2-1.02,2.411-2.028,3.616-3.041q7.966-6.691,15.929-13.385A4.616,4.616,0,0,1-410.746,777.618Z" transform="translate(434.02 -777.618)" fill="#273583"/>
      <path id="Path_73869" data-name="Path 73869" d="M-321.993,786.469c-.161-.125-.261-.2-.355-.277q-2.35-1.97-4.7-3.94a.625.625,0,0,1-.266-.543c.017-.851,0-1.7.008-2.553a1.426,1.426,0,0,1,1.52-1.529c.724,0,1.448,0,2.172,0a1.461,1.461,0,0,1,1.62,1.631q.006,3.048,0,6.1Z" transform="translate(361.213 -777.623)" fill="#273583"/>
      <path id="Path_73870" data-name="Path 73870" d="M-379.346,846.307a8.6,8.6,0,0,1,8.6,8.607,8.605,8.605,0,0,1-8.589,8.583,8.6,8.6,0,0,1-8.6-8.608A8.6,8.6,0,0,1-379.346,846.307Zm-2.162,2.34v4.116h-4.08v4.308h4.109v4.073h4.308v-4.1h4.081v-4.308H-377.2v-4.087Z" transform="translate(402.575 -824.486)" fill="#39b3a9"/>
    </g>
  </g>
</svg>
