<svg xmlns="http://www.w3.org/2000/svg" width="36.134" height="52.141" viewBox="0 0 36.134 52.141">
  <g id="Group_103468" data-name="Group 103468" transform="translate(-970.315 -231.77)">
    <path id="Path_73863" data-name="Path 73863" d="M979.635,424.481c-.651-.522-1.292-1.013-1.907-1.534a14.838,14.838,0,0,1-3.106-3.659,1.194,1.194,0,0,0-1.062-.629c-.593-.015-1.19,0-1.777-.066a1.565,1.565,0,0,1-1.462-1.42,1.652,1.652,0,0,1,1.239-1.762,2.823,2.823,0,0,1,.728-.093c.984-.012,1.969-.012,2.953-.011q4.278,0,8.557.007a5.534,5.534,0,0,1,.65.026A1.564,1.564,0,0,1,985.943,417a1.529,1.529,0,0,1-1.5,1.6c-.628.051-1.263.01-1.895.01l-.047.154c.392.3.768.632,1.18.907a9.625,9.625,0,0,0,5.87,1.523,10.4,10.4,0,0,0,9.067-5.224,10.777,10.777,0,0,0-2.288-14.276,1.917,1.917,0,0,0-1.13-.294,4.5,4.5,0,0,1-3.059-1.148,4.157,4.157,0,0,1,2.439-7.144,3.928,3.928,0,0,1,4.031,2.088,4.739,4.739,0,0,0,1.243,1.416,16.6,16.6,0,0,1,6.237,10.364c1.286,6.566-.983,11.905-5.788,16.326-.466.429-.967.819-1.487,1.256.229.12.4.217.584.305a18.2,18.2,0,0,1,4.226,2.866.931.931,0,0,1,.274.584c.034.661.013,1.325.013,2.017H974.6c0-.8-.013-1.6.013-2.406,0-.124.17-.257.285-.36a18.642,18.642,0,0,1,4.371-2.882C979.387,424.622,979.5,424.556,979.635,424.481Zm15.338-29.353a2.04,2.04,0,0,0-2.086,2.128,2.085,2.085,0,1,0,4.169-.057A2,2,0,0,0,994.973,395.128Z" transform="translate(0 -146.416)" fill="#273583"/>
    <path id="Path_73864" data-name="Path 73864" d="M1120.135,316.4a5.021,5.021,0,0,0-6.851,1.538,4.949,4.949,0,0,0,1.5,6.839c-.309.48-.62.964-.932,1.446-.425.656-.847,1.313-1.276,1.966-.358.544-.7.635-1.238.293q-2.837-1.808-5.661-3.637c-.507-.328-.568-.659-.217-1.219.707-1.128,1.43-2.246,2.148-3.367l6.791-10.6c.109-.171.217-.342.333-.509.391-.561.7-.638,1.279-.271,1.177.738,2.343,1.493,3.513,2.242.682.437,1.369.867,2.044,1.315.58.386.648.68.282,1.27C1121.292,314.6,1120.718,315.485,1120.135,316.4Z" transform="translate(-122.467 -69.787)" fill="#39b3a9"/>
    <path id="Path_73865" data-name="Path 73865" d="M1237.852,241.241l-5.3-3.445c.4-.615.787-1.2,1.17-1.794.787-1.212,1.569-2.427,2.361-3.636.456-.7.723-.758,1.419-.317q1.83,1.161,3.648,2.341c.5.325.622.682.34,1.131C1240.3,237.418,1239.086,239.3,1237.852,241.241Z" transform="translate(-238.028)" fill="#39b3a9"/>
    <path id="Path_73866" data-name="Path 73866" d="M1084.323,499.816l5.323,3.4c-.638.955-1.246,1.884-1.874,2.8a.651.651,0,0,1-.955.192q-2.037-1.279-4.053-2.59a.665.665,0,0,1-.207-1.019C1083.124,501.68,1083.714,500.774,1084.323,499.816Z" transform="translate(-101.746 -243.304)" fill="#39b3a9"/>
  </g>
</svg>
