<svg xmlns="http://www.w3.org/2000/svg" width="31.673" height="43.112" viewBox="0 0 31.673 43.112">
  <g id="Group_103471" data-name="Group 103471" transform="translate(1334.99 -774.518)">
    <path id="Path_73874" data-name="Path 73874" d="M-1305.7,878.364h-26.931c-.117-.042-.232-.09-.35-.126a2.658,2.658,0,0,1-2.009-2.676q0-15.613,0-31.226a2.669,2.669,0,0,1,2.591-2.763c1.414-.059,2.831-.025,4.247-.029a.69.69,0,0,1,.175.055c0,.639,0,1.269,0,1.9,0,.992.222,1.216,1.205,1.216h14.891c1.332,0,1.425-.093,1.425-1.439v-1.737c1.416,0,2.76.019,4.1,0a2.9,2.9,0,0,1,3.033,3.055c-.042,10.24-.02,20.48-.021,30.721,0,.168,0,.337-.007.5a2.575,2.575,0,0,1-.663,1.6A3.559,3.559,0,0,1-1305.7,878.364Zm-10.849-19.688c1.281,0,2.486,0,3.691,0,.606,0,.9-.264.908-.854q.024-1.768,0-3.535a.77.77,0,0,0-.88-.843c-1.08-.007-2.16,0-3.239,0h-.479c0-1.274,0-2.492,0-3.71,0-.581-.26-.872-.834-.881q-1.787-.028-3.576,0c-.555.009-.812.3-.818.854-.009.687,0,1.375,0,2.062,0,.543,0,1.087,0,1.654-.179.008-.316.019-.452.02-1.066,0-2.132,0-3.2,0-.666,0-.948.276-.953.944q-.012,1.683,0,3.367c.005.651.281.92.926.923,1.066.005,2.131,0,3.2,0h.479v.517c0,1.066,0,2.132,0,3.2,0,.578.271.878.834.886q1.788.024,3.576,0a.76.76,0,0,0,.819-.858c.008-.533,0-1.066,0-1.6Zm-2.639,13.7q4.692,0,9.383,0a2.354,2.354,0,0,0,.541-.052.663.663,0,0,0,.545-.7.686.686,0,0,0-.582-.719,2.177,2.177,0,0,0-.5-.028q-5.028,0-10.057,0-4.418,0-8.836,0c-.593,0-.919.271-.92.745s.326.741.918.756c.1,0,.2,0,.295,0Zm.016-3.761h3.7c1.066,0,2.132.007,3.2-.008a.733.733,0,0,0,.756-.7.746.746,0,0,0-.682-.767,2.822,2.822,0,0,0-.419-.022q-6.542,0-13.084,0a2.73,2.73,0,0,0-.5.037.733.733,0,0,0-.613.739.746.746,0,0,0,.661.7,3.706,3.706,0,0,0,.462.014Z" transform="translate(0 -60.735)" fill="#273583"/>
    <path id="Path_73875" data-name="Path 73875" d="M-1244,782.463v-5.015c.159-.008.308-.021.457-.021.925,0,1.851,0,2.776,0,.662,0,.822-.121,1.045-.746a3.128,3.128,0,0,1,5.157-1.267,3.891,3.891,0,0,1,.778,1.268c.26.6.384.742,1.048.745.925,0,1.85,0,2.776,0,.15,0,.3.013.483.021,0,1.593,0,3.148,0,4.7,0,.1-.015.19-.025.313Z" transform="translate(-82.462)" fill="#39b3a9"/>
    <path id="Path_73876" data-name="Path 73876" d="M-1226.984,942.605v-2.236h.455c1.052,0,2.1,0,3.156,0,.685,0,.972-.287.976-.973.007-1.191,0-2.382,0-3.6h2.207c.008.139.023.286.024.433,0,.744,0,1.487,0,2.231,0,1.913,0,1.913,1.933,1.913h2.638v2.236h-1.637c-.645,0-1.29,0-1.935,0-.72.007-.994.276-1,.992-.005,1.178,0,2.356,0,3.569h-2.233v-.779q0-1.326,0-2.652c0-.9-.225-1.131-1.112-1.132q-1.493,0-2.987,0Z" transform="translate(-97.884 -146.16)" fill="#39b3a9"/>
  </g>
</svg>
