<svg xmlns="http://www.w3.org/2000/svg" width="39.544" height="44.036" viewBox="0 0 39.544 44.036">
  <g id="Group_103470" data-name="Group 103470" transform="translate(324.019 -659.816)">
    <path id="Path_73871" data-name="Path 73871" d="M-324.019,861.58a24.01,24.01,0,0,1,.67-3.066,12.832,12.832,0,0,1,11.029-8.96.419.419,0,0,1,.1.013c.591,1.857,2.009,3.1,3.37,4.353,1.38,1.272,2.865,2.43,4.3,3.641.183.154.328.239.57.048a46.627,46.627,0,0,0,6.282-5.644,5.453,5.453,0,0,0,1.415-2.419,12.319,12.319,0,0,1,5.692,1.937,12.843,12.843,0,0,1,6.109,11.47,8.657,8.657,0,0,1-.309,2.119,5.171,5.171,0,0,1-4.152,3.773,21.419,21.419,0,0,1-5.216.5q-10.537,0-21.073-.019a15.74,15.74,0,0,1-4.993-.685,5.215,5.215,0,0,1-3.7-4.689c-.019-.154-.063-.306-.1-.458Zm30.969,1.346c.7,0,1.321-.012,1.941,0,.4.01.587-.144.574-.56-.017-.557-.018-1.115,0-1.672.013-.413-.163-.574-.569-.563-.632.017-1.265,0-1.946,0,0-.683-.012-1.316,0-1.948.01-.4-.149-.586-.562-.575-.557.015-1.115.016-1.672,0-.413-.013-.572.166-.561.572.017.633,0,1.266,0,1.953-.668,0-1.284,0-1.9,0-.552,0-.624.078-.629.644q-.006.741,0,1.482c0,.586.076.658.664.661.613,0,1.226,0,1.865,0,0,.7.012,1.321,0,1.94-.01.4.135.593.553.583.557-.015,1.115-.013,1.672,0,.4.009.581-.159.57-.57C-293.062,864.246-293.05,863.613-293.05,862.926Z" transform="translate(0 -165.492)" fill="#273583"/>
    <path id="Path_73872" data-name="Path 73872" d="M-232.525,670.565a19.5,19.5,0,0,1-3.3,10.041,14.036,14.036,0,0,1-2.939,3.307,6.866,6.866,0,0,1-9.464-.11,17.884,17.884,0,0,1-5.331-8.552,12.987,12.987,0,0,1-.4-7.335,10.951,10.951,0,0,1,11.276-8.081,10.92,10.92,0,0,1,9.957,8.991C-232.622,669.453-232.579,670.089-232.525,670.565Z" transform="translate(-60.794 0)" fill="#273583"/>
    <path id="Path_73873" data-name="Path 73873" d="M-117.908,918.017c0,.687-.012,1.32,0,1.953.01.411-.167.579-.571.57-.557-.012-1.115-.014-1.672,0-.418.011-.564-.184-.553-.583.016-.62,0-1.24,0-1.941-.638,0-1.252,0-1.865,0-.588,0-.66-.075-.664-.661q0-.74,0-1.481c0-.566.077-.641.629-.644.616,0,1.233,0,1.9,0,0-.687.012-1.32,0-1.953-.011-.405.148-.584.561-.572.557.017,1.115.016,1.672,0,.413-.011.572.171.562.575-.016.633,0,1.266,0,1.948.681,0,1.314.012,1.946,0,.406-.011.582.149.569.563-.018.557-.018,1.115,0,1.672.013.416-.171.57-.574.56C-116.587,918.005-117.207,918.017-117.908,918.017Z" transform="translate(-175.142 -220.583)" fill="#39b3a9"/>
  </g>
</svg>
