<svg xmlns="http://www.w3.org/2000/svg" width="62" height="61" viewBox="0 0 62 61">
  <g id="Group_103477" data-name="Group 103477" transform="translate(-139 -2625)">
    <g id="Icon_feather-arrow-left" data-name="Icon feather-arrow-left" transform="translate(174 2664.539) rotate(180)">
      <path id="Path_21505" data-name="Path 21505" d="M0,0,9.572,8.769,0,17.538" transform="translate(0)" fill="none" stroke="#fff" stroke-linecap="round" stroke-linejoin="round" stroke-width="3"/>
    </g>
    <g id="Path_73855" data-name="Path 73855" transform="translate(139 2625)" fill="none">
      <path d="M31,0C13.879,0,0,13.655,0,30.5S13.879,61,31,61,62,47.345,62,30.5,48.121,0,31,0Z" stroke="none"/>
      <path d="M 31 1 C 26.94757843017578 1 23.01705932617188 1.780590057373047 19.31760025024414 3.320091247558594 C 15.74488830566406 4.806850433349609 12.53631973266602 6.935218811035156 9.781021118164062 9.646080017089844 C 7.026851654052734 12.35583114624023 4.864768981933594 15.51066970825195 3.354839324951172 19.02296829223633 C 1.792278289794922 22.65768051147461 1 26.51911163330078 1 30.5 C 1 34.48088836669922 1.792278289794922 38.34231948852539 3.354839324951172 41.97702789306641 C 4.864768981933594 45.48933029174805 7.026851654052734 48.64416885375977 9.781021118164062 51.35391998291016 C 12.53631973266602 54.06478118896484 15.74488830566406 56.19314956665039 19.31760025024414 57.67990875244141 C 23.01705932617188 59.21940994262695 26.94757843017578 60 31 60 C 35.05242156982422 60 38.98294067382812 59.21940994262695 42.68239974975586 57.67990875244141 C 46.25511169433594 56.19314956665039 49.46368026733398 54.06478118896484 52.21897888183594 51.35391998291016 C 54.97314834594727 48.64416885375977 57.13523101806641 45.48933029174805 58.64516067504883 41.97702789306641 C 60.20772171020508 38.34231948852539 61 34.48088836669922 61 30.5 C 61 26.51911163330078 60.20772171020508 22.65768051147461 58.64516067504883 19.02296829223633 C 57.13523101806641 15.51066970825195 54.97314834594727 12.35583114624023 52.21897888183594 9.646080017089844 C 49.46368026733398 6.935218811035156 46.25511169433594 4.806850433349609 42.68239974975586 3.320091247558594 C 38.98294067382812 1.780590057373047 35.05242156982422 1 31 1 M 31 0 C 48.12083053588867 0 62 13.65531921386719 62 30.5 C 62 47.34468078613281 48.12083053588867 61 31 61 C 13.87916946411133 61 0 47.34468078613281 0 30.5 C 0 13.65531921386719 13.87916946411133 0 31 0 Z" stroke="none" fill="#fff"/>
    </g>
  </g>
</svg>
