<svg xmlns="http://www.w3.org/2000/svg" width="40.7" height="46.456" viewBox="0 0 40.7 46.456">
  <g id="Group_103472" data-name="Group 103472" transform="translate(-20.911 -1397.692)">
    <path id="Path_73877" data-name="Path 73877" d="M140.628,1549.1c-.854-.348-.854-.348-.854-1.329q0-9.388-.008-18.776a1.325,1.325,0,0,1,.351-.931,17.237,17.237,0,0,0,4.055-9.1,1.877,1.877,0,0,1,2.861-1.59,5.448,5.448,0,0,1,3.12,4.526,17.127,17.127,0,0,1-.859,7.1c-.119.418-.249.833-.39,1.3h.535c3.22,0,6.44-.012,9.659.008a3.13,3.13,0,0,1,3.119,3.426,3.318,3.318,0,0,1-.868,1.939,3.282,3.282,0,0,1-.445,4.364,9.376,9.376,0,0,0-.356,6.393,3.11,3.11,0,0,1-2.477,2.582,1.444,1.444,0,0,0-.2.084Z" transform="translate(-104.449 -104.957)" fill="#273583"/>
    <path id="Path_73878" data-name="Path 73878" d="M29,1638.8a7.23,7.23,0,0,1-1.032-.616,2.01,2.01,0,0,1-.664-1.625q0-7.571,0-15.142a2.118,2.118,0,0,1,2.235-2.217c2.433-.006,4.866-.017,7.3.013a3.126,3.126,0,0,1,1.244.333,1.193,1.193,0,0,1,.691,1.2c-.022,5.455-.013,10.91-.013,16.366a1.407,1.407,0,0,1-1.082,1.551c-.111.042-.221.087-.332.131Zm2.564-14.518c.136,0,.272.006.407,0a1.083,1.083,0,0,0,.065-2.161,5.2,5.2,0,0,0-.993,0,1.082,1.082,0,0,0,.069,2.157C31.265,1624.293,31.416,1624.285,31.567,1624.286Z" transform="translate(-5.618 -194.656)" fill="#273583"/>
    <path id="Path_73879" data-name="Path 73879" d="M142.778,1403.409a4.1,4.1,0,0,1-.516.8c-.791.768-1.606,1.514-2.435,2.241a.674.674,0,0,0-.234.745c.232,1.077.436,2.161.665,3.238a1.08,1.08,0,0,1-.4,1.17,1.043,1.043,0,0,1-1.232.058c-1-.565-1.993-1.139-3-1.679a.742.742,0,0,0-.6,0c-.973.517-1.932,1.061-2.886,1.613a1.117,1.117,0,0,1-1.74-1.246c.23-1.031.418-2.071.64-3.1a.741.741,0,0,0-.251-.824c-.811-.7-1.581-1.452-2.38-2.168a1.118,1.118,0,0,1,.669-2.022c1.1-.12,2.19-.257,3.288-.361a.56.56,0,0,0,.527-.392c.437-.995.9-1.976,1.347-2.969a1.124,1.124,0,0,1,2.164-.007c.45,1.006.919,2,1.364,3.011a.529.529,0,0,0,.506.352c1.112.108,2.223.238,3.332.373A1.251,1.251,0,0,1,142.778,1403.409Z" transform="translate(-94.059 0)" fill="#39b3a9"/>
    <path id="Path_73880" data-name="Path 73880" d="M261.122,1438.666a1.07,1.07,0,0,1,1,.7c.358.782.7,1.572,1.083,2.342a.7.7,0,0,0,.453.325c.821.122,1.649.2,2.474.295a1.119,1.119,0,0,1,.667,2.024c-.621.553-1.238,1.111-1.831,1.693a.7.7,0,0,0-.176.529c.142.848.32,1.691.5,2.533a1.078,1.078,0,0,1-.4,1.169,1.054,1.054,0,0,1-1.233.053c-.75-.422-1.492-.86-2.256-1.255a.755.755,0,0,0-.6,0c-.737.381-1.454.8-2.174,1.216a1.11,1.11,0,0,1-1.706-1.235c.16-.8.319-1.6.5-2.394a.606.606,0,0,0-.215-.671c-.615-.536-1.2-1.1-1.808-1.651a1.11,1.11,0,0,1,.64-2.006c.825-.095,1.649-.2,2.477-.273a.552.552,0,0,0,.522-.4c.337-.775.7-1.54,1.051-2.307A1.079,1.079,0,0,1,261.122,1438.666Z" transform="translate(-205.653 -36.007)" fill="#39b3a9"/>
    <path id="Path_73881" data-name="Path 73881" d="M27.076,1438.664a1.079,1.079,0,0,1,1.024.7c.36.781.723,1.561,1.071,2.348a.486.486,0,0,0,.461.341c.827.072,1.651.182,2.477.275a1.136,1.136,0,0,1,1.074.765,1.116,1.116,0,0,1-.4,1.253c-.6.549-1.192,1.116-1.808,1.651a.6.6,0,0,0-.207.673c.17.766.315,1.538.477,2.306a1.123,1.123,0,0,1-1.739,1.287c-.678-.4-1.376-.758-2.046-1.167a.653.653,0,0,0-.779.009c-.685.414-1.392.79-2.086,1.187a1.109,1.109,0,0,1-1.7-1.243c.174-.765.3-1.541.478-2.306a.722.722,0,0,0-.262-.818c-.6-.506-1.158-1.062-1.746-1.584a1.12,1.12,0,0,1-.4-1.256,1.134,1.134,0,0,1,1.08-.76c.811-.087,1.62-.2,2.432-.266a.558.558,0,0,0,.525-.4c.34-.774.7-1.54,1.049-2.308A1.068,1.068,0,0,1,27.076,1438.664Z" transform="translate(0 -36.006)" fill="#39b3a9"/>
  </g>
</svg>