<svg xmlns="http://www.w3.org/2000/svg" width="14" height="14" viewBox="0 0 14 14">
  <path id="Icon_ionic-md-call" data-name="Icon ionic-md-call" d="M17.722,14.222a9.129,9.129,0,0,1-2.761-.428.727.727,0,0,0-.778.194L12.472,15.7a11.7,11.7,0,0,1-5.133-5.133L9.05,8.856a.81.81,0,0,0,.194-.778,8.459,8.459,0,0,1-.467-2.8A.78.78,0,0,0,8,4.5H5.278a.78.78,0,0,0-.778.778A13.211,13.211,0,0,0,17.722,18.5a.78.78,0,0,0,.778-.778V15A.78.78,0,0,0,17.722,14.222Z" transform="translate(-4.5 -4.5)" fill="#fff" opacity="0.8"/>
</svg>
